<svg width="223" height="37" viewBox="0 0 223 37" fill="none" xmlns="http://www.w3.org/2000/svg">
<g clip-path="url(#clip0_122_94)">
<path d="M88.4603 9.08008V19.6001C88.4603 21.1901 88.1303 22.6301 87.4903 23.8501C86.8303 25.0901 85.8603 26.0801 84.6403 26.7601C83.4203 27.4401 82.0003 27.7701 80.3903 27.7701C78.7803 27.7701 77.3603 27.4201 76.1403 26.7601C74.9003 26.0801 73.9303 25.1101 73.2703 23.8501C72.6103 22.6101 72.2803 21.1901 72.2803 19.6001V9.08008H75.6803V19.2701C75.6803 20.9001 76.0903 22.1801 76.9403 23.0801C77.7603 23.9701 78.9203 24.4201 80.3603 24.4201C81.8003 24.4201 82.9603 23.9701 83.7603 23.0801C84.5803 22.1701 85.0003 20.8701 85.0003 19.2701V9.08008H88.4603Z" fill="#CACACA"/>
<path d="M101.26 9.02002V12.3H98.9502C97.5302 12.3 96.3902 12.75 95.5902 13.66C94.7702 14.59 94.3502 15.85 94.3502 17.39V27.41H90.9502V9.08002H93.6902L93.9202 11.06C95.2202 9.70002 96.9702 9.02002 99.1402 9.02002H101.26Z" fill="#CACACA"/>
<path d="M119.84 13.39C119.02 11.95 117.84 10.79 116.35 9.96998C114.89 9.16998 113.24 8.72998 111.44 8.72998C109.64 8.72998 108 9.13998 106.53 9.96998C105.05 10.79 103.89 11.95 103.04 13.39C102.22 14.83 101.78 16.46 101.78 18.26C101.78 20.06 102.19 21.66 103.04 23.11C103.86 24.57 105.04 25.73 106.53 26.53C107.99 27.35 109.64 27.77 111.44 27.77C113.24 27.77 114.88 27.36 116.35 26.53C117.83 25.71 119.01 24.55 119.84 23.11C120.66 21.67 121.1 20.04 121.1 18.26C121.1 16.48 120.69 14.86 119.84 13.39ZM111.45 24.42C110.27 24.42 109.2 24.15 108.27 23.62C107.34 23.09 106.6 22.34 106.06 21.41C105.52 20.48 105.26 19.41 105.26 18.25C105.26 17.09 105.53 15.98 106.06 15.05C106.6 14.12 107.34 13.38 108.27 12.84C109.2 12.3 110.27 12.04 111.45 12.04C112.63 12.04 113.68 12.31 114.61 12.84C115.54 13.38 116.28 14.12 116.82 15.07C117.36 16.02 117.62 17.09 117.62 18.27C117.62 19.45 117.35 20.5 116.82 21.43C116.29 22.36 115.54 23.1 114.61 23.64C113.68 24.18 112.61 24.44 111.45 24.44V24.42Z" fill="#CACACA"/>
<path d="M142.17 15.7C141.96 14.9 141.68 14.11 141.26 13.39C140.46 11.95 139.32 10.79 137.9 9.96998C136.48 9.14998 134.87 8.72998 133.1 8.72998C131.55 8.72998 130.11 9.05998 128.81 9.69998C127.94 10.13 127.16 10.69 126.5 11.35L126.23 9.63998L126.17 9.07998H123.49V33.5H126.89V25.52C127.51 26.06 128.19 26.51 128.95 26.88C130.19 27.48 131.59 27.77 133.09 27.77C134.86 27.77 136.47 27.36 137.89 26.53C139.31 25.71 140.45 24.55 141.25 23.11C142.05 21.65 142.45 20.02 142.45 18.26C142.45 17.37 142.35 16.53 142.14 15.7H142.17ZM132.96 24.59C131.76 24.59 130.67 24.3 129.74 23.77C128.79 23.23 128.03 22.47 127.51 21.5C126.95 20.55 126.69 19.46 126.69 18.26C126.69 17.06 126.98 15.97 127.51 15.02C128.03 14.07 128.79 13.31 129.74 12.75C130.69 12.19 131.76 11.93 132.96 11.93C134.16 11.93 135.23 12.2 136.18 12.75C137.11 13.29 137.85 14.05 138.39 15.02C138.93 15.97 139.19 17.06 139.19 18.28C139.19 19.5 138.92 20.57 138.39 21.52C137.85 22.49 137.11 23.25 136.18 23.79C135.25 24.33 134.16 24.61 132.98 24.61L132.96 24.59Z" fill="#CACACA"/>
<path d="M148.3 3.02002H144.9V27.44H148.3V3.02002Z" fill="#CACACA"/>
<path d="M167.13 9.07996L166.92 11.25C166.26 10.63 165.52 10.1 164.67 9.67996C163.37 9.03996 161.91 8.70996 160.34 8.70996C158.59 8.70996 156.98 9.11996 155.54 9.94996C154.1 10.77 152.94 11.93 152.12 13.37C151.3 14.81 150.88 16.46 150.88 18.22C150.88 19.98 151.29 21.62 152.12 23.05C152.94 24.49 154.08 25.65 155.52 26.47C156.96 27.29 158.57 27.73 160.32 27.73C161.89 27.73 163.35 27.4 164.63 26.76C165.45 26.35 166.2 25.83 166.84 25.21L167.03 27.38H170.04V9.07996H167.09H167.13ZM166.59 18.26C166.59 19.44 166.32 20.49 165.81 21.44C165.29 22.37 164.57 23.11 163.64 23.65C162.71 24.19 161.66 24.45 160.48 24.45C159.3 24.45 158.27 24.18 157.37 23.65C156.47 23.12 155.72 22.37 155.18 21.44C154.64 20.49 154.38 19.44 154.38 18.28C154.38 17.12 154.65 16.05 155.18 15.1C155.72 14.17 156.46 13.43 157.39 12.87C158.3 12.33 159.35 12.05 160.5 12.05C161.65 12.05 162.73 12.32 163.66 12.85C164.59 13.39 165.31 14.13 165.83 15.06C166.35 16.01 166.61 17.08 166.61 18.26H166.59Z" fill="#CACACA"/>
<path d="M189.441 16.61V27.42H186.021V17.09C186.021 15.42 185.631 14.12 184.871 13.25C184.131 12.38 183.031 11.97 181.631 11.97C180.741 11.97 179.921 12.2 179.161 12.67C178.421 13.14 177.801 13.78 177.371 14.59C176.941 15.4 176.711 16.3 176.711 17.29V27.44H173.311V9.08H176.031L176.321 11.16C176.861 10.6 177.501 10.11 178.221 9.72C179.421 9.08 180.761 8.75 182.201 8.75C183.641 8.75 184.921 9.08 186.041 9.76C187.151 10.44 188.021 11.39 188.601 12.59C189.181 13.77 189.471 15.13 189.471 16.63V16.61H189.441Z" fill="#CACACA"/>
<path d="M204.97 23.04C204.72 23.25 204.45 23.45 204.17 23.62C203.28 24.16 202.23 24.42 201.1 24.42C199.47 24.42 198.11 23.93 197.04 22.94C196.11 22.09 195.51 21 195.27 19.68H210.1L210.2 19.12C210.24 18.79 210.26 18.48 210.26 18.25C210.26 16.5 209.87 14.89 209.13 13.45C208.37 11.99 207.27 10.83 205.87 9.98998C204.49 9.16998 202.88 8.72998 201.11 8.72998C199.34 8.72998 197.79 9.13998 196.39 9.98998C194.97 10.84 193.85 11.99 193.05 13.41C192.25 14.85 191.83 16.48 191.83 18.26C191.83 20.04 192.24 21.66 193.05 23.09C193.85 24.53 194.99 25.69 196.39 26.51C197.79 27.33 199.38 27.77 201.11 27.77C203.03 27.77 204.78 27.25 206.29 26.24C206.7 25.95 207.09 25.64 207.44 25.29M195.36 16.42C195.65 15.2 196.25 14.21 197.15 13.43C198.22 12.5 199.54 12.03 201.09 12.03C202.64 12.03 203.89 12.5 204.95 13.43C205.84 14.19 206.43 15.22 206.72 16.44H195.36V16.42Z" fill="#CACACA"/>
<path d="M64.8802 23.04C64.6302 23.25 64.3602 23.45 64.0802 23.62C63.1902 24.16 62.1402 24.42 61.0102 24.42C59.3802 24.42 58.0202 23.93 56.9502 22.94C56.0202 22.09 55.4202 21 55.1802 19.68H70.0102L70.1102 19.12C70.1502 18.79 70.1702 18.48 70.1702 18.25C70.1702 16.5 69.7802 14.89 69.0402 13.45C68.2802 11.99 67.1802 10.83 65.7802 9.98998C64.4002 9.16998 62.7902 8.72998 61.0202 8.72998C59.2502 8.72998 57.7002 9.13998 56.3002 9.98998C54.8802 10.84 53.7602 11.99 52.9602 13.41C52.1602 14.85 51.7402 16.48 51.7402 18.26C51.7402 20.04 52.1502 21.66 52.9602 23.09C53.7602 24.53 54.9002 25.69 56.3002 26.51C57.7002 27.33 59.2902 27.77 61.0202 27.77C62.9402 27.77 64.6902 27.25 66.2002 26.24C66.6102 25.95 67.0002 25.64 67.3502 25.29M55.2802 16.42C55.5702 15.2 56.1702 14.21 57.0702 13.43C58.1402 12.5 59.4602 12.03 61.0102 12.03C62.5602 12.03 63.8102 12.5 64.8702 13.43C65.7602 14.19 66.3502 15.22 66.6402 16.44H55.2802V16.42Z" fill="#CACACA"/>
<path d="M222.66 24.18V27.44H219.92C218 27.44 216.46 26.86 215.32 25.73C214.18 24.6 213.61 23.03 213.61 21.09V12.33H210.7V11.01L215.77 5.79004H217.01V9.11004H222.54V12.33H217.01V21.03C217.01 22.08 217.28 22.87 217.81 23.4C218.33 23.94 219.13 24.2 220.18 24.2H222.68L222.66 24.18Z" fill="#CACACA"/>
<path d="M32.5904 3.39005C32.4504 3.25005 32.4004 3.04005 32.5104 2.85005L34.0604 0.210051C34.1804 5.14239e-05 34.4304 -0.0599486 34.6404 0.0500514C34.7804 0.130051 34.8904 0.240051 35.0104 0.320051C35.1504 0.420051 35.2804 0.530051 35.4204 0.610051C35.5604 0.690051 35.6904 0.800051 35.8304 0.900051C36.0204 1.04005 36.2004 1.19005 36.3704 1.33005C36.7204 1.62005 37.0504 1.91005 37.4004 2.22005C37.5604 2.36005 37.7304 2.51005 37.8904 2.67005L38.3404 3.12005C38.8104 3.61005 39.2704 4.15005 39.6804 4.67005C39.7804 4.79005 39.8904 4.92005 39.9704 5.04005C40.7104 6.01005 41.3704 7.04005 41.9504 8.11005C42.0304 8.27005 42.1404 8.44005 42.2004 8.60005C42.3004 8.79005 42.4104 8.99005 42.4904 9.20005C42.5504 9.34005 42.6104 9.49005 42.6804 9.61005C42.9304 10.1501 43.1304 10.7001 43.3204 11.2601C43.3804 11.4501 43.4404 11.6301 43.5104 11.8201C43.5704 12.0301 43.6504 12.2301 43.7004 12.4601C43.8404 12.9301 43.9504 13.4301 44.0704 13.9201C44.1504 14.2901 44.2104 14.6801 44.2804 15.0501C44.3404 15.3401 44.3604 15.6101 44.3804 15.9001L44.4404 16.3901C44.4804 16.8001 44.5004 17.2101 44.5204 17.6301V18.3101C44.5204 19.4901 44.4404 20.6401 44.2704 21.8001C44.1704 22.4601 44.0404 23.1201 43.8604 23.7601C42.9904 27.3101 41.2404 30.5701 38.7704 33.2901C38.5204 33.5601 38.2804 33.83 38.0104 34.09C37.5404 34.58 37.0404 35.0401 36.5004 35.4501C36.1704 35.7401 35.8204 36.0101 35.4504 36.2701C35.2604 36.4101 35.0804 36.54 34.8904 36.68H34.8704C34.6604 36.82 34.4004 36.7801 34.2504 36.5801L32.5204 34.0801C32.3804 33.8901 32.4204 33.63 32.6204 33.5C32.9304 33.29 33.2204 33.07 33.5304 32.82C33.8204 32.61 34.1104 32.37 34.4004 32.12C34.6704 31.87 34.9604 31.6301 35.2004 31.3601C35.6904 30.8701 36.1304 30.3701 36.5404 29.8501C36.6404 29.7301 36.7304 29.6201 36.8104 29.5001C37.0004 29.2701 37.1604 29.0501 37.3304 28.8201C37.5404 28.5301 37.7404 28.2201 37.9304 27.8901C38.2204 27.4201 38.4904 26.9401 38.7304 26.4501C38.8104 26.2901 38.8904 26.1201 38.9604 25.9601C39.2704 25.3001 39.5404 24.6201 39.7604 23.9201C39.8604 23.5701 39.9704 23.2001 40.0504 22.8501C40.2404 22.1501 40.3604 21.4301 40.4604 20.6801C40.5604 19.9201 40.6004 19.1301 40.6004 18.3501C40.6004 17.5701 40.5404 16.7401 40.4104 15.9601C40.3704 15.6301 40.3304 15.3201 40.2704 15.0101C40.2304 14.8001 40.1904 14.6201 40.1504 14.4301C40.0504 14.0201 39.9404 13.6501 39.8204 13.1901C39.7204 12.8801 39.6304 12.5701 39.5104 12.2601C39.4104 11.9701 39.3004 11.6801 39.1804 11.3901C39.0804 11.1801 38.9904 10.9801 38.9104 10.7901C38.7704 10.4601 38.6004 10.1301 38.4204 9.80005C38.2604 9.49005 38.0904 9.18005 37.8804 8.87005C37.7404 8.64005 37.5904 8.42005 37.4504 8.21005C37.2604 7.92005 36.9104 7.47005 36.7104 7.20005C36.5704 7.01005 36.4204 6.81005 36.2604 6.62005C36.1604 6.48005 36.0504 6.35005 35.9304 6.23005C35.1704 5.38005 34.3004 4.60005 33.3904 3.90005C33.2704 3.82005 33.1604 3.74005 33.0604 3.65005L32.6304 3.34005L32.6104 3.36005L32.5904 3.39005Z" fill="#335FFF"/>
<path d="M11.93 33.4801C12.07 33.6201 12.12 33.8301 12.01 34.0201L10.46 36.6601C10.34 36.8701 10.09 36.9301 9.88 36.8201C9.74 36.7401 9.63 36.6301 9.51 36.5501C9.37 36.4501 9.24 36.3401 9.1 36.2601C8.96 36.1801 8.83 36.0701 8.69 35.9701C8.5 35.8301 8.32 35.6801 8.15 35.5401C7.8 35.2501 7.47 34.9601 7.12 34.6501C6.96 34.5101 6.79 34.3601 6.63 34.2001L6.18 33.7501C5.71 33.2601 5.25 32.7201 4.84 32.2001C4.74 32.0801 4.63 31.9501 4.55 31.8301C3.81 30.8601 3.15 29.8301 2.57 28.7601C2.49 28.6001 2.38 28.4301 2.32 28.2701C2.22 28.0801 2.11 27.8801 2.03 27.6701C1.97 27.5301 1.91 27.3801 1.84 27.2601C1.59 26.7201 1.39 26.1701 1.2 25.6101C1.14 25.4201 1.08 25.2401 1.01 25.0501C0.95 24.8401 0.87 24.6401 0.82 24.4101C0.68 23.9401 0.57 23.4401 0.45 22.9501C0.37 22.5801 0.31 22.1901 0.24 21.8201C0.18 21.5301 0.16 21.2601 0.14 20.9701C0.12 20.8101 0.1 20.6401 0.08 20.4801C0.04 20.0701 0.02 19.6601 0 19.2401V18.5601C0 17.3801 0.08 16.2301 0.25 15.0701C0.35 14.4101 0.48 13.7501 0.66 13.1101C1.53 9.56006 3.28 6.30006 5.75 3.58006C6 3.31006 6.24 3.04006 6.51 2.78006C6.98 2.29006 7.48 1.83006 8.02 1.42006C8.35 1.13006 8.7 0.860061 9.07 0.600061C9.26 0.460061 9.44 0.330061 9.63 0.190061H9.65C9.86 0.0500605 10.12 0.0900605 10.27 0.290061L12 2.79006C12.14 2.98006 12.1 3.24006 11.9 3.37006C11.59 3.58006 11.3 3.80006 10.99 4.05006C10.7 4.26006 10.41 4.50006 10.12 4.75006C9.85 5.00006 9.56 5.24006 9.32 5.51006C8.83 6.00006 8.39 6.50006 7.98 7.02006C7.88 7.14006 7.79 7.25006 7.71 7.37006C7.52 7.60006 7.36 7.82006 7.19 8.05006C6.98 8.34006 6.78 8.65006 6.59 8.98006C6.3 9.45006 6.03 9.93006 5.79 10.4201C5.71 10.5801 5.63 10.7501 5.56 10.9101C5.25 11.5701 4.98 12.2501 4.76 12.9501C4.66 13.3001 4.55 13.6701 4.47 14.0201C4.28 14.7201 4.16 15.4401 4.06 16.1901C3.96 16.9501 3.92 17.7401 3.92 18.5201C3.92 19.3001 3.98 20.1301 4.11 20.9101C4.15 21.2401 4.19 21.5501 4.25 21.8601C4.29 22.0701 4.33 22.2501 4.37 22.4401C4.47 22.8501 4.58 23.2201 4.7 23.6801C4.8 23.9901 4.89 24.3001 5.01 24.6101C5.11 24.9001 5.22 25.1901 5.34 25.4801C5.44 25.6901 5.53 25.8901 5.61 26.0801C5.75 26.4101 5.92 26.7401 6.1 27.0701C6.26 27.3801 6.43 27.6901 6.64 28.0001C6.78 28.2301 6.93 28.4501 7.07 28.6601C7.26 28.9501 7.61 29.4001 7.81 29.6701C7.95 29.8601 8.1 30.0601 8.26 30.2501C8.36 30.3901 8.47 30.5201 8.59 30.6401C9.35 31.4901 10.22 32.2701 11.13 32.9701C11.25 33.0501 11.36 33.1301 11.46 33.2201L11.89 33.5301L11.91 33.5101L11.93 33.4801Z" fill="#335FFF"/>
<path d="M13.9495 29.74C13.8295 29.93 13.8695 30.17 14.0495 30.3C16.3795 31.93 19.2295 32.88 22.2795 32.88C25.3295 32.88 28.1795 31.93 30.5495 30.28C30.7395 30.16 30.7795 29.89 30.6495 29.7L28.7095 26.96C28.5495 26.73 28.2595 26.69 28.0295 26.84C26.3595 27.97 24.3795 28.61 22.2995 28.61C20.2195 28.61 18.2595 27.97 16.6295 26.88C16.3795 26.72 16.0495 26.76 15.8895 27L13.9695 29.7L13.9495 29.74Z" fill="#335FFF"/>
<path d="M36.7198 18.22C36.7198 18.71 36.7198 19.19 36.6598 19.68V19.97C36.6598 19.97 36.6398 20.01 36.6198 20.03C36.6198 20.26 36.4098 20.4 36.2098 20.4H18.1498C17.9198 20.4 17.7398 20.3 17.6098 20.13L15.0698 16.58C14.9298 16.39 15.0698 16.13 15.3198 16.13H32.1898C31.1398 11.57 27.0298 8.25001 22.2698 8.25001C20.1698 8.25001 18.2098 8.91001 16.5798 10C16.3498 10.14 16.0398 10.1 15.8998 9.90001L13.9598 7.20001C13.8198 6.99001 13.8598 6.71001 14.0598 6.58001C17.0298 4.52001 20.7798 3.55001 24.7798 4.23001C31.5198 5.38001 36.5498 11.39 36.6798 18.21H36.7198V18.22Z" fill="#335FFF"/>
</g>
<defs>
<clipPath id="clip0_122_94">
<rect width="222.68" height="36.88" fill="white"/>
</clipPath>
</defs>
</svg>
