<svg width="1099" height="193" viewBox="0 0 1099 193" fill="none" xmlns="http://www.w3.org/2000/svg">
<path d="M8.37891 190.781V1.71875H84.0039V38.2422H46.8359V75.0879H82.5V110.645H46.8359V153.936H86.4746V190.781H8.37891ZM142.764 192.5C127.008 192.5 115.407 188.096 107.959 179.287C100.511 170.407 96.7871 157.373 96.7871 140.186V1.71875H133.525V138.682C133.525 141.833 133.704 144.876 134.062 147.812C134.421 150.677 135.244 153.04 136.533 154.902C137.822 156.764 139.899 157.695 142.764 157.695C145.7 157.695 147.812 156.8 149.102 155.01C150.391 153.148 151.178 150.749 151.465 147.812C151.823 144.876 152.002 141.833 152.002 138.682V1.71875H188.74V140.186C188.74 157.373 185.016 170.407 177.568 179.287C170.12 188.096 158.519 192.5 142.764 192.5ZM203.242 190.781V1.71875H261.25C270.918 1.71875 278.223 3.9388 283.164 8.37891C288.105 12.7474 291.4 18.9062 293.047 26.8555C294.766 34.7331 295.625 44.0072 295.625 54.6777C295.625 64.9902 294.3 73.2259 291.65 79.3848C289.072 85.5436 284.167 89.8047 276.934 92.168C282.878 93.3854 287.031 96.3574 289.395 101.084C291.829 105.739 293.047 111.79 293.047 119.238V190.781H255.771V116.768C255.771 111.253 254.626 107.852 252.334 106.562C250.114 105.202 246.497 104.521 241.484 104.521V190.781H203.242ZM241.699 71.7578H250.83C256.058 71.7578 258.672 66.0645 258.672 54.6777C258.672 47.3014 258.099 42.4674 256.953 40.1758C255.807 37.8841 253.659 36.7383 250.508 36.7383H241.699V71.7578ZM353.203 192.5C338.092 192.5 326.527 187.952 318.506 178.857C310.557 169.691 306.582 156.478 306.582 139.219V49.4141C306.582 33.2292 310.521 20.9473 318.398 12.5684C326.348 4.18945 337.949 0 353.203 0C368.457 0 380.023 4.18945 387.9 12.5684C395.85 20.9473 399.824 33.2292 399.824 49.4141V139.219C399.824 156.478 395.814 169.691 387.793 178.857C379.844 187.952 368.314 192.5 353.203 192.5ZM353.525 157.695C359.255 157.695 362.119 152.145 362.119 141.045V48.7695C362.119 39.4596 359.326 34.8047 353.74 34.8047C347.438 34.8047 344.287 39.5671 344.287 49.0918V141.26C344.287 147.132 345.003 151.357 346.436 153.936C347.868 156.442 350.231 157.695 353.525 157.695ZM415.078 190.781V1.71875H465.029C475.485 1.71875 483.757 4.04622 489.844 8.70117C496.003 13.3561 500.407 19.9805 503.057 28.5742C505.706 37.168 507.031 47.4089 507.031 59.2969C507.031 70.7552 505.921 80.7454 503.701 89.2676C501.481 97.7181 497.507 104.271 491.777 108.926C486.12 113.581 478.063 115.908 467.607 115.908H452.246V190.781H415.078ZM452.246 81.9629H454.395C461.413 81.9629 465.71 79.9935 467.285 76.0547C468.861 72.1159 469.648 66.3151 469.648 58.6523C469.648 51.4909 468.861 45.9766 467.285 42.1094C465.781 38.1706 462.165 36.2012 456.436 36.2012H452.246V81.9629ZM519.062 190.781V1.71875H556.875V158.555H595.762V190.781H519.062ZM601.348 190.781L619.609 1.71875H683.74L701.68 190.781H665.908L663.223 160.273H640.449L638.086 190.781H601.348ZM643.135 130.088H660.322L652.051 33.9453H650.332L643.135 130.088ZM713.281 190.781V1.71875H752.168L769.57 92.2754V1.71875H806.094V190.781H769.141L750.234 96.25V190.781H713.281ZM822.852 190.781V1.71875H898.477V38.2422H861.309V75.0879H896.973V110.645H861.309V153.936H900.947V190.781H822.852ZM929.736 190.781V38.0273H907.285V1.71875H990V38.0273H967.549V190.781H929.736Z" fill="#CACACA"/>
<path d="M1077.56 7.67149C1077.32 7.42852 1077.23 7.06408 1077.42 6.73435L1080.11 2.15277C1080.32 1.78833 1080.75 1.6842 1081.12 1.8751C1081.36 2.01394 1081.55 2.20484 1081.76 2.34367C1082 2.51722 1082.23 2.70812 1082.47 2.84695C1082.71 2.98579 1082.94 3.17669 1083.18 3.35023C1083.51 3.59319 1083.82 3.85351 1084.12 4.09647C1084.73 4.59975 1085.3 5.10303 1085.91 5.64102C1086.18 5.88398 1086.48 6.1443 1086.76 6.42197L1087.54 7.20292C1088.35 8.05328 1089.15 8.99042 1089.86 9.89286C1090.04 10.1011 1090.23 10.3267 1090.37 10.535C1091.65 12.2184 1092.8 14.0059 1093.8 15.8628C1093.94 16.1405 1094.13 16.4355 1094.24 16.7132C1094.41 17.0429 1094.6 17.39 1094.74 17.7544C1094.84 17.9974 1094.95 18.2577 1095.07 18.466C1095.5 19.4031 1095.85 20.3576 1096.18 21.3294C1096.28 21.6592 1096.39 21.9715 1096.51 22.3013C1096.61 22.6657 1096.75 23.0128 1096.84 23.412C1097.08 24.2276 1097.27 25.0953 1097.48 25.9457C1097.62 26.5878 1097.72 27.2647 1097.85 27.9068C1097.95 28.41 1097.98 28.8786 1098.02 29.3819L1098.12 30.2323C1098.19 30.9438 1098.23 31.6553 1098.26 32.3842V33.5643C1098.26 35.6121 1098.12 37.6079 1097.83 39.621C1097.65 40.7664 1097.43 41.9118 1097.12 43.0225C1095.61 49.1833 1092.57 54.8409 1088.28 59.5613C1087.85 60.0298 1087.43 60.4984 1086.96 60.9496C1086.15 61.8 1085.28 62.5983 1084.34 63.3098C1083.77 63.8131 1083.16 64.2817 1082.52 64.7329C1082.19 64.9759 1081.88 65.2015 1081.55 65.4444H1081.51C1081.15 65.6874 1080.7 65.618 1080.44 65.2709L1077.44 60.9323C1077.19 60.6025 1077.26 60.1513 1077.61 59.9257C1078.15 59.5613 1078.65 59.1795 1079.19 58.7456C1079.69 58.3812 1080.2 57.9647 1080.7 57.5308C1081.17 57.0969 1081.67 56.6804 1082.09 56.2119C1082.94 55.3615 1083.7 54.4938 1084.41 53.5913C1084.59 53.3831 1084.74 53.1922 1084.88 52.9839C1085.21 52.5848 1085.49 52.203 1085.78 51.8038C1086.15 51.3006 1086.5 50.7626 1086.83 50.1899C1087.33 49.3742 1087.8 48.5412 1088.21 47.6908C1088.35 47.4132 1088.49 47.1181 1088.61 46.8405C1089.15 45.6951 1089.62 44.515 1090 43.3002C1090.17 42.6928 1090.37 42.0506 1090.5 41.4432C1090.83 40.2284 1091.04 38.9789 1091.22 37.6773C1091.39 36.3584 1091.46 34.9874 1091.46 33.6337C1091.46 32.2801 1091.35 30.8397 1091.13 29.486C1091.06 28.9133 1090.99 28.3753 1090.89 27.8374C1090.82 27.4729 1090.75 27.1605 1090.68 26.8308C1090.5 26.1193 1090.31 25.4771 1090.11 24.6788C1089.93 24.1409 1089.78 23.6029 1089.57 23.0649C1089.39 22.5616 1089.2 22.0583 1088.99 21.555C1088.82 21.1906 1088.66 20.8435 1088.53 20.5138C1088.28 19.9411 1087.99 19.3684 1087.68 18.7957C1087.4 18.2577 1087.1 17.7197 1086.74 17.1817C1086.5 16.7826 1086.24 16.4008 1085.99 16.0363C1085.66 15.5331 1085.06 14.7521 1084.71 14.2835C1084.47 13.9538 1084.2 13.6067 1083.93 13.277C1083.75 13.034 1083.56 12.8084 1083.35 12.6001C1082.04 11.125 1080.53 9.77137 1078.95 8.55656C1078.74 8.41773 1078.55 8.27889 1078.37 8.1227L1077.63 7.58471L1077.59 7.61942L1077.56 7.67149Z" fill="#CACACA"/>
<path d="M1041.7 59.891C1041.95 60.134 1042.03 60.4984 1041.84 60.8282L1039.15 65.4097C1038.94 65.7742 1038.51 65.8783 1038.15 65.6874C1037.9 65.5486 1037.71 65.3577 1037.5 65.2188C1037.26 65.0453 1037.04 64.8544 1036.79 64.7155C1036.55 64.5767 1036.32 64.3858 1036.08 64.2123C1035.75 63.9693 1035.44 63.709 1035.14 63.466C1034.54 62.9628 1033.96 62.4595 1033.36 61.9215C1033.08 61.6785 1032.78 61.4182 1032.51 61.1405L1031.73 60.3596C1030.91 59.5092 1030.11 58.5721 1029.4 57.6696C1029.23 57.4614 1029.04 57.2358 1028.9 57.0275C1027.61 55.3441 1026.47 53.5566 1025.46 51.6997C1025.32 51.422 1025.13 51.127 1025.03 50.8493C1024.85 50.5196 1024.66 50.1725 1024.52 49.8081C1024.42 49.5651 1024.31 49.3048 1024.19 49.0965C1023.76 48.1594 1023.41 47.2049 1023.08 46.2331C1022.98 45.9033 1022.87 45.5909 1022.75 45.2612C1022.65 44.8968 1022.51 44.5497 1022.42 44.1505C1022.18 43.3349 1021.99 42.4672 1021.78 41.6168C1021.64 40.9747 1021.54 40.2978 1021.42 39.6557C1021.31 39.1525 1021.28 38.6839 1021.24 38.1806C1021.21 37.9029 1021.17 37.6079 1021.14 37.3302C1021.07 36.6187 1021.03 35.9072 1021 35.1783V33.9982C1021 31.9504 1021.14 29.9546 1021.43 27.9415C1021.61 26.7961 1021.83 25.6507 1022.15 24.54C1023.66 18.3792 1026.69 12.7216 1030.98 8.00122C1031.41 7.53265 1031.83 7.06408 1032.3 6.61287C1033.11 5.7625 1033.98 4.9642 1034.92 4.25266C1035.49 3.74938 1036.1 3.28081 1036.74 2.8296C1037.07 2.58664 1037.38 2.36103 1037.71 2.11807H1037.75C1038.11 1.8751 1038.56 1.94452 1038.82 2.29161L1041.83 6.63022C1042.07 6.95996 1042 7.41117 1041.65 7.63678C1041.11 8.00122 1040.61 8.38302 1040.07 8.81688C1039.57 9.18133 1039.07 9.59783 1038.56 10.0317C1038.09 10.4656 1037.59 10.8821 1037.17 11.3506C1036.32 12.201 1035.56 13.0687 1034.85 13.9712C1034.68 14.1794 1034.52 14.3703 1034.38 14.5786C1034.05 14.9777 1033.77 15.3595 1033.48 15.7587C1033.11 16.2619 1032.77 16.7999 1032.44 17.3726C1031.93 18.1883 1031.46 19.0213 1031.05 19.8717C1030.91 20.1493 1030.77 20.4444 1030.65 20.722C1030.11 21.8674 1029.64 23.0475 1029.26 24.2623C1029.09 24.8697 1028.9 25.5119 1028.76 26.1193C1028.43 27.3341 1028.22 28.5836 1028.05 29.8852C1027.87 31.2041 1027.8 32.5751 1027.8 33.9288C1027.8 35.2824 1027.91 36.7228 1028.13 38.0765C1028.2 38.6492 1028.27 39.1872 1028.38 39.7251C1028.45 40.0896 1028.51 40.402 1028.58 40.7317C1028.76 41.4432 1028.95 42.0854 1029.16 42.8837C1029.33 43.4216 1029.49 43.9596 1029.69 44.4976C1029.87 45.0009 1030.06 45.5042 1030.27 46.0075C1030.44 46.3719 1030.6 46.719 1030.74 47.0487C1030.98 47.6214 1031.27 48.1941 1031.59 48.7668C1031.86 49.3048 1032.16 49.8428 1032.52 50.3808C1032.77 50.7799 1033.03 51.1617 1033.27 51.5262C1033.6 52.0294 1034.21 52.8104 1034.55 53.279C1034.8 53.6087 1035.06 53.9558 1035.33 54.2855C1035.51 54.5285 1035.7 54.7541 1035.91 54.9623C1037.23 56.4375 1038.74 57.7911 1040.32 59.0059C1040.52 59.1448 1040.71 59.2836 1040.89 59.4398L1041.63 59.9778L1041.67 59.9431L1041.7 59.891Z" fill="#CACACA"/>
<path d="M1045.21 53.4005C1045 53.7302 1045.07 54.1467 1045.38 54.3723C1049.43 57.2011 1054.37 58.8498 1059.67 58.8498C1064.96 58.8498 1069.9 57.2011 1074.02 54.3376C1074.35 54.1293 1074.42 53.6608 1074.19 53.331L1070.82 48.5759C1070.55 48.1768 1070.04 48.1074 1069.64 48.3677C1066.75 50.3287 1063.31 51.4394 1059.7 51.4394C1056.09 51.4394 1052.69 50.3287 1049.86 48.4371C1049.43 48.1594 1048.85 48.2288 1048.58 48.6453L1045.24 53.331L1045.21 53.4005Z" fill="#CACACA"/>
<path d="M1084.73 33.4081C1084.73 34.2585 1084.73 35.0915 1084.62 35.9419V36.4452C1084.62 36.4452 1084.59 36.5146 1084.55 36.5493C1084.55 36.9484 1084.19 37.1914 1083.84 37.1914H1052.5C1052.1 37.1914 1051.79 37.0179 1051.56 36.7228L1047.15 30.562C1046.91 30.2323 1047.15 29.7811 1047.59 29.7811H1076.86C1075.04 21.8674 1067.91 16.1058 1059.65 16.1058C1056 16.1058 1052.6 17.2511 1049.77 19.1428C1049.37 19.3857 1048.84 19.3163 1048.59 18.9692L1045.23 14.2835C1044.98 13.9191 1045.05 13.4332 1045.4 13.2076C1050.55 9.63254 1057.06 7.94916 1064 9.12927C1075.7 11.125 1084.43 21.555 1084.66 33.3908H1084.73V33.4081Z" fill="#CACACA"/>
</svg>
