<svg xmlns="http://www.w3.org/2000/svg" width="32" height="32" fill="none"><path fill="#fff" d="M31 26h-2V12a1 1 0 0 0 0-2h-6V6a1 1 0 1 0 0-2H5a1 1 0 0 0 0 2v20H3a1 1 0 0 0 0 2h28a1 1 0 0 0 0-2Zm-4-14v14h-4V12h4ZM7 6h14v20h-3v-6a1 1 0 0 0-1-1h-6a1 1 0 0 0-1 1v6H7V6Zm9 20h-4v-5h4v5ZM9 10a1 1 0 0 1 1-1h2a1 1 0 1 1 0 2h-2a1 1 0 0 1-1-1Zm6 0a1 1 0 0 1 1-1h2a1 1 0 1 1 0 2h-2a1 1 0 0 1-1-1Zm-6 5a1 1 0 0 1 1-1h2a1 1 0 0 1 0 2h-2a1 1 0 0 1-1-1Zm6 0a1 1 0 0 1 1-1h2a1 1 0 0 1 0 2h-2a1 1 0 0 1-1-1Z"/></svg>